<?xml version="1.0" encoding="utf-8"?>
<svg id="master-artboard" viewBox="0 0 140.64413452148438 63.25151062011719" xmlns="http://www.w3.org/2000/svg" width="140.64413452148438px" height="63.25151062011719px" version="1.1" style="shape-rendering:geometricPrecision; text-rendering:geometricPrecision; image-rendering:optimizeQuality; fill-rule:evenodd; clip-rule:evenodd"><rect id="ee-background" x="0" y="0" width="140.64413452148438" height="63.25151062011719" style="fill: white; fill-opacity: 0; pointer-events: none;"/><defs><path id="text-path-0" d="M 66.0429458618164 88.37110137939453 A 100 100 0 0 1 413.8085632324219 88.37110137939453 A 100 100 0 0 1 66.0429458618164 88.37110137939453 Z" style="fill: none; stroke: red; stroke-width: 2;"/></defs><g transform="matrix(0.136922388125878, 0, 0, 0.136922388125878, 23.316525888597496, 14.310635049794888)"><linearGradient id="gradient-1" gradientUnits="userSpaceOnUse" x1="486.4817" y1="66.4817" x2="609.5183" y2="189.5183">
						<stop offset="0" style="stop-color:#29ABE2"/>
						<stop offset="0.2675" style="stop-color:#26A7DF"/>
						<stop offset="0.5265" style="stop-color:#1E9BD8"/>
						<stop offset="0.7811" style="stop-color:#1088CB"/>
						<stop offset="1" style="stop-color:#0071BC"/>
					</linearGradient><g transform="matrix(1, 0, 0, 1, 0, 0)"><g transform="matrix(1, 0, 0, 1, 0, 0)"><g transform="matrix(1, 0, 0, 1, -239.22799682617188, 0)"><path d="M 635 128 A 87 87 0 0 1 548 215 A 87 87 0 0 1 461 128 A 87 87 0 0 1 548 41 A 87 87 0 0 1 635 128 Z" class="st14" style="fill: url('#gradient-1'); fill-opacity: 0.74;" transform="matrix(1, 0, 0, 1, 5.4569682106375694e-12, 1.3642420526593924e-12)"/><g class="st2" transform="matrix(1, 0, 0, 1, -4, -3)" style="opacity: 0.15;">
					<path d="M590.9,127.6l-31.3-31.3c-4-4-10.4-4-14.4,0c-4,4-4,10.5,0,14.4l12.2,12.2h-23.9c-6.9,0-12.5,5.6-12.5,12.5&#10;&#9;&#9;&#9;&#9;&#9;&#9;s5.6,12.5,12.5,12.5h23.8l-12,12c-4,4-4,10.4,0,14.4c4,4,10.4,4,14.4,0l31.3-31.3c2.1-2.1,3.1-4.9,3-7.7&#10;&#9;&#9;&#9;&#9;&#9;&#9;C594,132.6,593.1,129.7,590.9,127.6z" style="fill-opacity: 0.74;"/>
				</g><path class="st3" d="M583.9,120.6l-31.3-31.3c-4-4-10.4-4-14.4,0c-4,4-4,10.5,0,14.4l12.2,12.2h-23.9&#10;&#9;&#9;&#9;&#9;&#9;&#9;c-6.9,0-12.5,5.6-12.5,12.5c0,6.9,5.6,12.5,12.5,12.5h23.8l-12,12c-4,4-4,10.4,0,14.4c4,4,10.4,4,14.4,0l31.3-31.3&#10;&#9;&#9;&#9;&#9;&#9;&#9;c2.1-2.1,3.1-4.9,3-7.7C587,125.6,586.1,122.7,583.9,120.6z" style="fill: rgb(255, 255, 255); fill-opacity: 0.74;" transform="matrix(1, 0, 0, 1, 9.094947017729282e-12, 2.2737367544323206e-12)"/></g></g></g></g><path d="M 99.78986358642578 -43.592960357666016 C 104.33699798583984 -39.843963623046875 106.79381561279297 -35.744686126708984 107.16032409667969 -31.295133590698242 C 107.53196716308594 -26.841339111328125 105.8072509765625 -22.297155380249023 101.98615264892578 -17.662580490112305 L 95.7010726928711 -10.039448738098145 L 68.1636734008789 -32.74335861206055 L 75.11669921875 -41.176639556884766 C 78.6494140625 -45.4614372253418 82.5789566040039 -47.811946868896484 86.90532684326172 -48.22816848754883 C 91.2410888671875 -48.64529037475586 95.53593444824219 -47.100223541259766 99.78986358642578 -43.592960357666016 M 97.10657501220703 -40.10261917114258 C 93.51619720458984 -43.062801361083984 90.0683822631836 -44.39337158203125 86.76314544677734 -44.09433364868164 C 83.45790100097656 -43.795291900634766 80.34003448486328 -41.868587493896484 77.40953826904297 -38.314212799072266 L 73.57360076904297 -33.6616325378418 L 95.57112121582031 -15.525222778320312 L 98.78363800048828 -19.421661376953125 C 101.930419921875 -23.238370895385742 103.35812377929688 -26.882591247558594 103.06674194335938 -30.35432243347168 C 102.77112579345703 -33.8209114074707 100.7844009399414 -37.070343017578125 97.10657501220703 -40.10261917114258 ZM 140.93206787109375 -54.865882873535156 L 130.48712158203125 -61.14596176147461 L 119.15227508544922 -52.4111328125 L 122.60302734375 -40.74121856689453 L 119.27623748779297 -38.17753601074219 L 108.57592010498047 -75.17890167236328 L 111.34032440185547 -77.30919647216797 L 144.3380584716797 -57.490604400634766 L 140.93206787109375 -54.865882873535156 M 127.18242645263672 -63.32097244262695 L 117.14421081542969 -69.54835510253906 C 115.86192321777344 -70.32767486572266 114.37577819824219 -71.34967803955078 112.68577575683594 -72.61437225341797 C 113.35284423828125 -71.15896606445312 113.99409484863281 -69.4858627319336 114.60951232910156 -67.59507751464844 L 118.03375244140625 -56.27084732055664 L 127.18242645263672 -63.32097244262695 ZM 166.80087280273438 -80.03276824951172 C 168.18849182128906 -77.21601104736328 168.24855041503906 -74.51444244384766 166.9810333251953 -71.92805480957031 C 165.71351623535156 -69.34165954589844 163.3275146484375 -67.18525695800781 159.82301330566406 -65.45883178710938 C 156.0314483642578 -63.59099578857422 152.8714599609375 -62.64368438720703 150.34300231933594 -62.61689376831055 L 148.57533264160156 -66.20511627197266 C 150.16500854492188 -66.29708862304688 151.80938720703125 -66.56464385986328 153.50845336914062 -67.00778198242188 C 155.21646118164062 -67.44788360595703 156.82997131347656 -68.0420913696289 158.3489990234375 -68.7904052734375 C 160.83084106445312 -70.0130386352539 162.46844482421875 -71.40316009521484 163.26177978515625 -72.96076202392578 C 164.0521697998047 -74.52434539794922 164.033447265625 -76.14637756347656 163.20558166503906 -77.82686614990234 C 162.66055297851562 -78.93323516845703 161.9884796142578 -79.73177337646484 161.18936157226562 -80.22248077392578 C 160.399169921875 -80.71015167236328 159.33349609375 -80.9952163696289 157.9923095703125 -81.07769012451172 C 156.65711975097656 -81.16310119628906 154.7349395751953 -81.05967712402344 152.22579956054688 -80.76742553710938 C 148.72315979003906 -80.3647689819336 145.9740447998047 -80.58226776123047 143.97842407226562 -81.41993713378906 C 141.97976684570312 -82.2486801147461 140.4015350341797 -83.83819580078125 139.24371337890625 -86.18848419189453 C 138.0299072265625 -88.65239715576172 137.99053955078125 -91.07061004638672 139.1256103515625 -93.443115234375 C 140.25772094726562 -95.82160186767578 142.35177612304688 -97.7635726928711 145.40774536132812 -99.26903533935547 C 148.58929443359375 -100.83637237548828 151.80540466308594 -101.69242095947266 155.0560760498047 -101.8371810913086 L 155.4852294921875 -98.0243148803711 C 152.29391479492188 -97.83448028564453 149.45135498046875 -97.12529754638672 146.95755004882812 -95.89676666259766 C 144.98402404785156 -94.92455291748047 143.6532440185547 -93.74132537841797 142.96522521972656 -92.34707641601562 C 142.27122497558594 -90.94989013671875 142.29396057128906 -89.5007553100586 143.033447265625 -87.99967956542969 C 143.5814208984375 -86.88733673095703 144.23255920410156 -86.07848358154297 144.9868621826172 -85.57313537597656 C 145.75009155273438 -85.06475830078125 146.76048278808594 -84.75615692138672 148.0180206298828 -84.64735412597656 C 149.28448486328125 -84.53551483154297 151.0932159423828 -84.6127700805664 153.44419860839844 -84.8791275024414 C 157.39437866210938 -85.3387680053711 160.33921813964844 -85.19166564941406 162.27867126464844 -84.43780517578125 C 164.21519470214844 -83.68993377685547 165.72259521484375 -82.22158813476562 166.80087280273438 -80.03276824951172 ZM 208.70468139648438 -83.0433120727539 L 204.67730712890625 -82.04190063476562 L 200.62339782714844 -98.34545135498047 L 182.37893676757812 -93.80891418457031 L 186.432861328125 -77.50537109375 L 182.40550231933594 -76.50395202636719 L 173.7933349609375 -111.13928985595703 L 177.82069396972656 -112.14070129394531 L 181.48370361328125 -97.40928649902344 L 199.7281494140625 -101.94581604003906 L 196.0651397705078 -116.67723846435547 L 200.09249877929688 -117.67864990234375 L 208.70468139648438 -83.0433120727539 ZM 222.8483123779297 -120.95966339111328 L 232.9270782470703 -121.11771392822266 C 237.65982055664062 -121.19193267822266 241.09715270996094 -120.53907775878906 243.2390594482422 -119.15916442871094 C 245.37428283691406 -117.77913665771484 246.4658966064453 -115.55931854248047 246.5138702392578 -112.49969482421875 C 246.547119140625 -110.37995147705078 245.9845733642578 -108.62425231933594 244.8262481689453 -107.23258209228516 C 243.6679229736328 -105.84091186523438 241.96209716796875 -104.92405700683594 239.70875549316406 -104.48200225830078 L 239.71266174316406 -104.2320327758789 C 245.1465301513672 -103.39046478271484 247.9008331298828 -100.58663940429688 247.97557067871094 -95.820556640625 C 248.025634765625 -92.62761688232422 246.9848175048828 -90.12098693847656 244.8531036376953 -88.30067443847656 C 242.7281494140625 -86.47380065917969 239.729248046875 -85.52999877929688 235.85638427734375 -85.4692611694336 L 223.4079132080078 -85.27405548095703 L 222.8483123779297 -120.95966339111328 M 227.2373809814453 -105.74661254882812 L 234.06654357910156 -105.85370635986328 C 236.99952697753906 -105.89969635009766 239.10205078125 -106.39273071289062 240.37413024902344 -107.3327865600586 C 241.64620971679688 -108.2728500366211 242.26516723632812 -109.83274841308594 242.23098754882812 -112.0124740600586 C 242.1996307373047 -114.0122299194336 241.46041870117188 -115.44415283203125 240.0133514404297 -116.30823516845703 C 238.56629943847656 -117.17231750488281 236.27963256835938 -117.57984924316406 233.15335083007812 -117.53082275390625 L 227.05409240722656 -117.43517303466797 L 227.2373809814453 -105.74661254882812 M 227.29257202148438 -102.22704315185547 L 227.5019073486328 -88.8786849975586 L 234.94097900390625 -88.99534606933594 C 237.82730102539062 -89.04060363769531 239.98829650878906 -89.6312255859375 241.4239959716797 -90.7672119140625 C 242.86636352539062 -91.9032974243164 243.5688934326172 -93.66120147705078 243.5315704345703 -96.04090881347656 C 243.4968719482422 -98.25396728515625 242.72479248046875 -99.86872863769531 241.21533203125 -100.88518524169922 C 239.71253967285156 -101.90174865722656 237.43800354003906 -102.38613891601562 234.39170837402344 -102.33837127685547 L 227.29257202148438 -102.22704315185547 ZM 294.95428466796875 -95.87355041503906 C 293.71966552734375 -90.29521942138672 291.33941650390625 -86.21995544433594 287.8135986328125 -83.64776611328125 C 284.2812805175781 -81.07701873779297 280.0058288574219 -80.34701538085938 274.9872741699219 -81.457763671875 C 269.8515625 -82.59443664550781 266.2379455566406 -85.03977966308594 264.14642333984375 -88.79378509521484 C 262.0498352050781 -92.55574035644531 261.6340026855469 -97.29423522949219 262.8988952636719 -103.00926208496094 C 264.1551513671875 -108.68523406982422 266.5284729003906 -112.77568054199219 270.0189208984375 -115.28058624267578 C 273.5079345703125 -117.77898406982422 277.8268127441406 -118.45841217041016 282.97552490234375 -117.31885528564453 C 287.9810791015625 -116.21099090576172 291.5382995605469 -113.75764465332031 293.647216796875 -109.95882415771484 C 295.756103515625 -106.15999603271484 296.1918029785156 -101.46491241455078 294.95428466796875 -95.87355041503906 M 267.186279296875 -102.01937866210938 C 266.140380859375 -97.29373931884766 266.35040283203125 -93.4918441772461 267.8164367675781 -90.61370849609375 C 269.2875061035156 -87.72761535644531 271.94000244140625 -85.86029815673828 275.77386474609375 -85.01175689697266 C 279.6337890625 -84.1574478149414 282.8185729980469 -84.72599029541016 285.3282165527344 -86.7173843383789 C 287.8327941894531 -88.71672821044922 289.6094665527344 -92.08573150634766 290.65826416015625 -96.82438659667969 C 291.6955261230469 -101.51097106933594 291.50250244140625 -105.28178405761719 290.07916259765625 -108.1368179321289 C 288.6493225097656 -110.99329376220703 286.01422119140625 -112.84652709960938 282.173828125 -113.69651794433594 C 278.307373046875 -114.55226135253906 275.0990905761719 -113.98550415039062 272.5489807128906 -111.99624633789062 C 270.00390625 -109.99903869628906 268.2163391113281 -106.67341613769531 267.186279296875 -102.01937866210938 ZM 323.6476745605469 -64.29594421386719 L 324.58392333984375 -76.44746398925781 L 311.69720458984375 -82.66905212402344 L 302.80914306640625 -74.35655975341797 L 299.0268859863281 -76.18260192871094 L 327.31573486328125 -102.32334899902344 L 330.4586181640625 -100.80599975585938 L 327.5199890136719 -62.42642593383789 L 323.6476745605469 -64.29594421386719 M 325.04827880859375 -80.3763427734375 L 326.1195983886719 -92.140625 C 326.24200439453125 -93.63616180419922 326.49005126953125 -95.42266082763672 326.86376953125 -97.50012969970703 C 325.8613586425781 -96.2518081665039 324.6527099609375 -94.92906188964844 323.2378845214844 -93.53189849853516 L 314.64703369140625 -85.39795684814453 L 325.04827880859375 -80.3763427734375 ZM 348.3926086425781 -66.32366180419922 L 339.3099365234375 -54.587791442871094 L 336.02801513671875 -57.12776184082031 L 357.8717346191406 -85.35236358642578 L 365.6139221191406 -79.36048889160156 C 369.0724792480469 -76.68383026123047 371.1174011230469 -74.04324340820312 371.74871826171875 -71.43872833251953 C 372.3759460449219 -68.82893371582031 371.6593017578125 -66.19281005859375 369.5987548828125 -63.53036117553711 C 366.7099304199219 -59.79766082763672 362.86480712890625 -58.73973846435547 358.06341552734375 -60.356597900390625 L 355.9093933105469 -41.74106979370117 L 352.0343322753906 -44.74006652832031 L 354.2763671875 -61.77008056640625 L 348.3926086425781 -66.32366180419922 M 350.5776062011719 -69.14691162109375 L 355.077392578125 -65.6644058227539 C 357.3918762207031 -63.873165130615234 359.44451904296875 -63.01799774169922 361.23529052734375 -63.09890365600586 C 363.0301208496094 -63.185081481933594 364.6395568847656 -64.14816284179688 366.0635681152344 -65.98815155029297 C 367.5079650878906 -67.85450744628906 367.99749755859375 -69.62529754638672 367.5321350097656 -71.30052947998047 C 367.0761413574219 -72.97695922851562 365.6302490234375 -74.7577133178711 363.19451904296875 -76.6427993774414 L 358.93194580078125 -79.94169616699219 L 350.5776062011719 -69.14691162109375 ZM 396.1858825683594 -24.036012649536133 C 391.6387634277344 -20.287015914916992 387.1462707519531 -18.65677261352539 382.7084655761719 -19.145278930664062 C 378.2655029296875 -19.629547119140625 374.13348388671875 -22.188966751098633 370.3123779296875 -26.823543548583984 L 364.02728271484375 -34.44667434692383 L 391.564697265625 -57.15058517456055 L 398.5177307128906 -48.71730422973633 C 402.0504455566406 -44.4325065612793 403.6086730957031 -40.12691879272461 403.1924743652344 -35.8005485534668 C 402.77532958984375 -31.46478843688965 400.4398193359375 -27.543275833129883 396.1858825683594 -24.036012649536133 M 393.2711181640625 -27.33551025390625 C 396.86151123046875 -30.295690536499023 398.8249816894531 -33.42659378051758 399.16156005859375 -36.72822570800781 C 399.4981384277344 -40.02985763549805 398.201171875 -43.457855224609375 395.27069091796875 -47.012229919433594 L 391.43475341796875 -51.66481018066406 L 369.4372253417969 -33.52840042114258 L 372.6497497558594 -29.631961822509766 C 375.7965393066406 -25.81525230407715 379.1017150878906 -23.718978881835938 382.5653381347656 -23.343137741088867 C 386.0246887207031 -22.972440719604492 389.5932922363281 -24.303232192993164 393.2711181640625 -27.33551025390625 Z" transform="matrix(0.41700470447540283, 0, 0, 0.41700470447540283, -30.41120719909668, 52.0690803527832)" style="fill: rgb(31, 155, 217); white-space: pre; color: rgb(31, 155, 217); fill-opacity: 0.74;"/></svg>